<?xml version="1.0" standalone="no"?>
<!DOCTYPE svg PUBLIC "-//W3C//DTD SVG 20010904//EN"
 "http://www.w3.org/TR/2001/REC-SVG-20010904/DTD/svg10.dtd">
<svg version="1.0" xmlns="http://www.w3.org/2000/svg"
 width="1024.000000pt" height="1024.000000pt" viewBox="0 0 1024.000000 1024.000000"
 preserveAspectRatio="xMidYMid meet">
<metadata>
Created by potrace 1.14, written by Peter Selinger 2001-2017
</metadata>
<g transform="translate(0.000000,1024.000000) scale(0.100000,-0.100000)"
fill="#000000" stroke="none">
<path d="M0 5120 l0 -5120 5120 0 5120 0 0 5120 0 5120 -5120 0 -5120 0 0
-5120z m5862 2679 c172 -50 331 -101 353 -113 30 -16 44 -32 54 -62 14 -40 12
-48 -710 -2550 -683 -2369 -725 -2511 -755 -2542 -28 -27 -39 -32 -81 -32 -56
1 -665 176 -708 204 -35 23 -58 79 -50 120 14 67 1426 4953 1442 4990 20 45
64 76 110 76 18 0 173 -41 345 -91z m-2399 -1079 c14 -11 115 -116 224 -233
303 -324 283 -300 283 -350 0 -30 -7 -55 -22 -76 -13 -17 -230 -214 -483 -437
-305 -269 -461 -413 -463 -428 -2 -18 86 -101 465 -435 257 -228 476 -426 485
-440 20 -29 24 -92 7 -122 -16 -31 -466 -512 -497 -531 -15 -10 -46 -18 -68
-18 -34 0 -51 7 -87 38 -24 20 -378 352 -786 737 -803 757 -777 729 -749 807
10 30 168 184 773 754 418 394 774 725 790 735 39 25 95 24 128 -1z m3442 1
c17 -10 370 -339 785 -731 568 -535 760 -722 774 -753 37 -81 70 -45 -755
-823 -413 -390 -767 -721 -787 -736 -42 -33 -102 -37 -144 -10 -31 19 -481
500 -497 531 -17 30 -13 93 7 122 9 14 228 212 485 440 380 335 467 417 465
435 -2 15 -156 158 -463 428 -253 224 -470 420 -482 438 -35 48 -31 108 9 155
65 75 449 483 475 503 32 25 88 26 128 1z"/>
</g>
</svg>
